<svg width="396" height="84" viewBox="0 0 396 84" fill="none" xmlns="http://www.w3.org/2000/svg">
<rect width="378" height="84" rx="14" fill="#111827"/>
<path d="M74.51 59.91C72.9933 59.91 71.9083 59.4783 71.255 58.615C70.6017 57.7283 70.275 56.4217 70.275 54.695C70.275 52.945 71.01 48.01 72.48 39.89L70.625 36.145C73.2617 34.4417 75.665 33.59 77.835 33.59C79.6317 33.59 80.53 34.6867 80.53 36.88C80.53 37.6033 80.075 40.2983 79.165 44.965C78.2783 49.6083 77.835 52.3733 77.835 53.26C77.835 55.5233 78.185 57.215 78.885 58.335C77.485 59.385 76.0267 59.91 74.51 59.91ZM87.5193 59.875C86.1427 59.875 85.1277 59.5133 84.4743 58.79C83.821 58.0667 83.4943 57.11 83.4943 55.92C83.4943 54.73 83.7277 52.7933 84.1943 50.11C84.6843 47.4267 85.186 44.9767 85.6993 42.76L83.8793 39.96C86.1893 38.6533 88.3243 38 90.2843 38C92.2443 38 93.2243 38.8867 93.2243 40.66C93.2243 41.8267 92.956 43.0167 92.4193 44.23L92.7693 44.405C95.266 40.135 98.4393 38 102.289 38C105.113 38 106.524 39.4117 106.524 42.235C106.524 43.4483 106.174 45.5017 105.474 48.395C104.798 51.2883 104.459 53.47 104.459 54.94C104.459 56.41 104.704 57.4833 105.194 58.16C103.958 59.3033 102.651 59.875 101.274 59.875C98.591 59.875 97.2493 58.4283 97.2493 55.535C97.2493 54.4617 97.5993 52.6417 98.2993 50.075C98.9993 47.5083 99.3493 45.84 99.3493 45.07C99.3493 44.02 98.9527 43.495 98.1593 43.495C97.506 43.495 96.7593 43.7867 95.9193 44.37C95.0793 44.93 94.2627 45.7 93.4693 46.68C92.6993 47.6367 92.046 48.8617 91.5093 50.355C90.9727 51.825 90.7043 53.33 90.7043 54.87C90.7043 56.3867 90.9493 57.4833 91.4393 58.16C90.2027 59.3033 88.896 59.875 87.5193 59.875ZM110.018 47.905C109.854 47.3917 109.773 46.8667 109.773 46.33C109.773 45.21 110.088 44.3583 110.718 43.775C111.348 43.1917 112.153 42.8883 113.133 42.865C112.969 42.1417 112.888 41.3483 112.888 40.485C112.888 37.9183 113.553 35.7133 114.883 33.87C116.213 32.0033 118.091 31.07 120.518 31.07C121.848 31.07 122.886 31.4667 123.633 32.26C124.403 33.0533 124.788 33.975 124.788 35.025C124.788 36.075 124.426 36.9733 123.703 37.72C122.979 38.4433 122.034 38.805 120.868 38.805C119.701 38.805 118.663 38.525 117.753 37.965L117.263 38.35L118.488 42.515C119.701 42.3517 120.938 42.0367 122.198 41.57C122.361 42.0833 122.443 42.7133 122.443 43.46C122.443 44.1833 122.221 44.8717 121.778 45.525C121.358 46.155 120.739 46.5633 119.923 46.75C118.429 53.6333 117.683 58.5333 117.683 61.45C117.683 62.9433 118.044 64.005 118.768 64.635C117.064 65.7783 115.548 66.35 114.218 66.35C111.604 66.35 110.298 64.74 110.298 61.52C110.298 59.5133 111.021 54.7767 112.468 47.31C111.418 47.52 110.601 47.7183 110.018 47.905ZM142.03 40.66C143.337 40.66 144.457 41.185 145.39 42.235C146.347 43.285 146.825 44.8133 146.825 46.82C146.825 48.8033 146.475 50.6467 145.775 52.35C145.075 54.03 144.154 55.4067 143.01 56.48C141.867 57.5533 140.572 58.3933 139.125 59C137.679 59.5833 136.197 59.875 134.68 59.875C131.624 59.875 129.209 59.035 127.435 57.355C125.662 55.675 124.775 53.4467 124.775 50.67C124.775 46.9133 125.977 43.8683 128.38 41.535C130.807 39.1783 133.887 38 137.62 38C138.46 38 139.3 38.0933 140.14 38.28C140.397 39.05 140.537 39.925 140.56 40.905C141.05 40.7417 141.54 40.66 142.03 40.66ZM137.725 45.525C137.725 44.8717 137.877 44.1367 138.18 43.32C138.507 42.5033 139.02 41.85 139.72 41.36C136.64 42.0133 134.517 43.2617 133.35 45.105C132.347 46.6917 131.845 48.325 131.845 50.005C131.845 51.685 132.184 53.0383 132.86 54.065C133.56 55.0683 134.447 55.57 135.52 55.57C137.9 55.57 139.58 54.0183 140.56 50.915C138.67 49.7483 137.725 47.9517 137.725 45.525ZM168.583 51.335C168.443 52.175 168.373 52.8167 168.373 53.26C168.373 55.5233 168.723 57.215 169.423 58.335C168.023 59.385 166.565 59.91 165.048 59.91C163.531 59.91 162.446 59.4783 161.793 58.615C161.14 57.7283 160.813 56.4217 160.813 54.695C160.813 52.945 161.548 48.01 163.018 39.89L161.163 36.145C163.8 34.4417 166.203 33.59 168.373 33.59C168.98 33.59 169.645 33.7067 170.368 33.94C171.091 34.15 171.605 34.395 171.908 34.675C173.635 33.9983 175.233 33.66 176.703 33.66C178.896 33.66 180.623 34.43 181.883 35.97C183.166 37.4867 183.808 39.33 183.808 41.5C183.808 44.1133 182.863 46.4467 180.973 48.5C180.063 49.5033 178.838 50.3083 177.298 50.915C175.758 51.5217 174.183 51.825 172.573 51.825C170.986 51.825 169.656 51.6617 168.583 51.335ZM169.248 47.345C169.575 47.415 169.913 47.45 170.263 47.45C171.756 47.45 173.086 46.925 174.253 45.875C175.42 44.825 176.003 43.53 176.003 41.99C176.003 40.9167 175.688 40.0067 175.058 39.26C174.451 38.5133 173.588 38.14 172.468 38.14C172.001 38.14 171.465 38.2333 170.858 38.42C170.391 41.6167 169.855 44.5917 169.248 47.345ZM185.726 55.535C185.726 54.6017 185.959 52.7933 186.426 50.11C186.916 47.4267 187.417 44.9767 187.931 42.76L186.111 39.96C189.027 38.6533 191.069 38 192.236 38C193.426 38 194.021 38.7467 194.021 40.24C194.021 41.0567 193.636 42.76 192.866 45.35L193.216 45.525C194.896 40.5083 196.984 38 199.481 38C200.624 38 201.499 38.35 202.106 39.05C202.712 39.75 203.016 40.5317 203.016 41.395C203.016 42.6783 202.537 43.775 201.581 44.685C200.624 45.595 199.189 46.05 197.276 46.05C194.382 46.05 192.936 49.025 192.936 54.975C192.936 56.4217 193.181 57.4833 193.671 58.16C192.224 59.3033 190.894 59.875 189.681 59.875C187.044 59.875 185.726 58.4283 185.726 55.535ZM221.156 40.66C222.463 40.66 223.583 41.185 224.516 42.235C225.473 43.285 225.951 44.8133 225.951 46.82C225.951 48.8033 225.601 50.6467 224.901 52.35C224.201 54.03 223.28 55.4067 222.136 56.48C220.993 57.5533 219.698 58.3933 218.251 59C216.805 59.5833 215.323 59.875 213.806 59.875C210.75 59.875 208.335 59.035 206.561 57.355C204.788 55.675 203.901 53.4467 203.901 50.67C203.901 46.9133 205.103 43.8683 207.506 41.535C209.933 39.1783 213.013 38 216.746 38C217.586 38 218.426 38.0933 219.266 38.28C219.523 39.05 219.663 39.925 219.686 40.905C220.176 40.7417 220.666 40.66 221.156 40.66ZM216.851 45.525C216.851 44.8717 217.003 44.1367 217.306 43.32C217.633 42.5033 218.146 41.85 218.846 41.36C215.766 42.0133 213.643 43.2617 212.476 45.105C211.473 46.6917 210.971 48.325 210.971 50.005C210.971 51.685 211.31 53.0383 211.986 54.065C212.686 55.0683 213.573 55.57 214.646 55.57C217.026 55.57 218.706 54.0183 219.686 50.915C217.796 49.7483 216.851 47.9517 216.851 45.525ZM242.466 56.445L242.116 56.27C240.296 58.6733 238.126 59.875 235.606 59.875C233.739 59.875 232.152 59.14 230.846 57.67C229.562 56.1767 228.921 54.17 228.921 51.65C228.921 48.5233 230.017 45.6767 232.211 43.11C233.284 41.85 234.719 40.835 236.516 40.065C238.312 39.2717 240.319 38.875 242.536 38.875C242.956 38.875 243.702 38.9217 244.776 39.015C244.822 38.525 244.927 37.93 245.091 37.23L243.131 34.43C246.047 32.7267 248.346 31.875 250.026 31.875C250.982 31.875 251.659 32.0733 252.056 32.47C252.452 32.8433 252.651 33.5667 252.651 34.64C252.651 35.69 252.126 38.6767 251.076 43.6C250.049 48.5233 249.536 52.0233 249.536 54.1C249.536 56.1533 249.897 57.5067 250.621 58.16C249.314 59.3033 247.949 59.875 246.526 59.875C245.126 59.875 244.099 59.525 243.446 58.825C242.792 58.1017 242.466 57.3083 242.466 56.445ZM235.501 50.32C235.501 51.65 235.839 52.7 236.516 53.47C237.216 54.24 238.079 54.625 239.106 54.625C240.436 54.625 241.649 53.995 242.746 52.735C243.119 48.5817 243.644 44.9883 244.321 41.955C241.637 41.955 239.491 42.8183 237.881 44.545C236.294 46.2717 235.501 48.1967 235.501 50.32ZM261.332 59.875C259.279 59.875 257.844 59.3733 257.027 58.37C256.211 57.3667 255.802 56.1067 255.802 54.59C255.802 53.05 256.059 50.95 256.572 48.29C257.086 45.63 257.342 43.705 257.342 42.515C257.342 41.325 257.097 40.3917 256.607 39.715C258.777 38.5717 260.609 38 262.102 38C263.059 38 263.747 38.1983 264.167 38.595C264.611 38.9683 264.832 39.5867 264.832 40.45C264.832 41.3133 264.471 43.4367 263.747 46.82C263.047 50.18 262.697 52.2567 262.697 53.05C262.697 53.8433 262.919 54.4733 263.362 54.94C263.806 55.3833 264.389 55.605 265.112 55.605C265.836 55.605 266.606 55.325 267.422 54.765C268.239 54.1817 268.904 53.365 269.417 52.315C269.744 50.425 270.386 47.4383 271.342 43.355L269.242 40.555C271.599 38.8517 273.839 38 275.962 38C277.012 38 277.759 38.1983 278.202 38.595C278.669 38.9683 278.902 39.5517 278.902 40.345C278.902 41.115 278.471 43.3433 277.607 47.03C276.767 50.7167 276.347 53.3417 276.347 54.905C276.347 56.445 276.709 57.53 277.432 58.16C276.126 59.3033 274.749 59.875 273.302 59.875C271.879 59.875 270.852 59.56 270.222 58.93C269.592 58.3 269.277 57.4717 269.277 56.445L268.927 56.27C268.157 57.39 267.084 58.2767 265.707 58.93C264.354 59.56 262.896 59.875 261.332 59.875ZM282.601 46.365C282.438 45.7117 282.356 45.105 282.356 44.545C282.356 43.4017 282.694 42.5383 283.371 41.955C284.048 41.3717 284.923 41.08 285.996 41.08C285.996 39.8667 285.681 38.5483 285.051 37.125C286.194 36.285 287.233 35.655 288.166 35.235C289.123 34.7917 290.126 34.57 291.176 34.57C292.226 34.57 292.949 34.7683 293.346 35.165C293.766 35.5383 293.976 36.1217 293.976 36.915C293.976 37.7083 293.813 38.945 293.486 40.625C294.419 40.485 295.364 40.2867 296.321 40.03C296.484 40.52 296.566 41.15 296.566 41.92C296.566 42.69 296.263 43.4133 295.656 44.09C295.073 44.7433 294.209 45.07 293.066 45.07H292.541C291.701 48.8733 291.281 51.8017 291.281 53.855C291.281 55.9083 291.643 57.3433 292.366 58.16C291.059 59.3033 289.671 59.875 288.201 59.875C286.731 59.875 285.669 59.4433 285.016 58.58C284.386 57.6933 284.071 56.3283 284.071 54.485C284.071 53.365 284.479 50.425 285.296 45.665C284.363 45.8283 283.464 46.0617 282.601 46.365ZM315.731 40.66C317.038 40.66 318.158 41.185 319.091 42.235C320.048 43.285 320.526 44.8133 320.526 46.82C320.526 48.8033 320.176 50.6467 319.476 52.35C318.776 54.03 317.855 55.4067 316.711 56.48C315.568 57.5533 314.273 58.3933 312.826 59C311.38 59.5833 309.898 59.875 308.381 59.875C305.325 59.875 302.91 59.035 301.136 57.355C299.363 55.675 298.476 53.4467 298.476 50.67C298.476 46.9133 299.678 43.8683 302.081 41.535C304.508 39.1783 307.588 38 311.321 38C312.161 38 313.001 38.0933 313.841 38.28C314.098 39.05 314.238 39.925 314.261 40.905C314.751 40.7417 315.241 40.66 315.731 40.66ZM311.426 45.525C311.426 44.8717 311.578 44.1367 311.881 43.32C312.208 42.5033 312.721 41.85 313.421 41.36C310.341 42.0133 308.218 43.2617 307.051 45.105C306.048 46.6917 305.546 48.325 305.546 50.005C305.546 51.685 305.885 53.0383 306.561 54.065C307.261 55.0683 308.148 55.57 309.221 55.57C311.601 55.57 313.281 54.0183 314.261 50.915C312.371 49.7483 311.426 47.9517 311.426 45.525Z" fill="white"/>
</svg>
